<svg width="43" height="91" viewBox="0 0 43 91" fill="none" xmlns="http://www.w3.org/2000/svg">
<path d="M34.7567 61.9597H7.60863C4.37672 61.9597 1.79119 59.3742 1.79119 56.1423V8.31002C1.79119 5.07811 4.37672 2.49258 7.60863 2.49258H34.7567C37.9886 2.49258 40.5741 5.07811 40.5741 8.31002V56.1423C40.5741 59.3742 37.9886 61.9597 34.7567 61.9597Z" stroke="white" stroke-width="3" stroke-miterlimit="10"/>
<path d="M26.3534 61.9598H16.0113V79.1536H26.3534V61.9598Z" stroke="white" stroke-width="3" stroke-miterlimit="10"/>
<path d="M21.1833 30.9344C26.1811 30.9344 30.2327 26.8828 30.2327 21.885C30.2327 16.8872 26.1811 12.8357 21.1833 12.8357C16.1855 12.8357 12.134 16.8872 12.134 21.885C12.134 26.8828 16.1855 30.9344 21.1833 30.9344Z" stroke="white" stroke-width="3" stroke-miterlimit="10"/>
<path d="M21.183 51.1015C24.2533 51.1015 26.7423 48.6125 26.7423 45.5422C26.7423 42.4719 24.2533 39.9829 21.183 39.9829C18.1126 39.9829 15.6237 42.4719 15.6237 45.5422C15.6237 48.6125 18.1126 51.1015 21.183 51.1015Z" stroke="white" stroke-width="3" stroke-miterlimit="10"/>
<path d="M1.6615 88.2029V84.3246C1.6615 81.4806 3.98847 79.1536 6.83255 79.1536H35.5319C38.376 79.1536 40.7029 81.4806 40.7029 84.3246V88.2029C40.7029 88.9786 40.1858 89.4957 39.4102 89.4957H2.95426C2.1786 89.4957 1.6615 88.9786 1.6615 88.2029Z" stroke="white" stroke-width="3" stroke-miterlimit="10"/>
</svg>
