<svg width="214" height="165" viewBox="0 0 214 165" fill="none" xmlns="http://www.w3.org/2000/svg">
<path d="M184.855 62.5488H143.948C143.181 62.5488 142.669 62.0374 142.669 61.2704V55.1344C142.669 52.9612 144.331 51.2993 146.504 51.2993H182.298C184.471 51.2993 186.133 52.9612 186.133 55.1344V61.2704C186.133 62.0374 185.622 62.5488 184.855 62.5488Z" stroke="white" stroke-width="2" stroke-miterlimit="10"/>
<path d="M149.444 51.0437L145.226 33.6582" stroke="white" stroke-width="2" stroke-miterlimit="10" stroke-linecap="round"/>
<path d="M179.102 51.0437L183.448 33.6582" stroke="white" stroke-width="2" stroke-miterlimit="10" stroke-linecap="round"/>
<path d="M164.401 46.3138C165.743 46.3138 166.83 45.2264 166.83 43.885C166.83 42.5436 165.743 41.4561 164.401 41.4561C163.06 41.4561 161.972 42.5436 161.972 43.885C161.972 45.2264 163.06 46.3138 164.401 46.3138Z" stroke="white" stroke-width="2" stroke-miterlimit="10"/>
<path d="M171.048 39.7942C169.386 38.1324 166.958 37.1097 164.401 37.1097C161.844 37.1097 159.415 38.1324 157.754 39.7942" stroke="white" stroke-width="2" stroke-miterlimit="10" stroke-linecap="round"/>
<path d="M173.733 37.1097C171.304 34.6809 167.98 33.2747 164.401 33.2747C160.694 33.2747 157.37 34.6809 155.069 37.1097" stroke="white" stroke-width="2" stroke-miterlimit="10" stroke-linecap="round"/>
<path d="M176.545 34.4252C173.349 31.3572 169.131 29.4397 164.401 29.4397C159.671 29.4397 155.453 31.3572 152.257 34.4252" stroke="white" stroke-width="2" stroke-miterlimit="10" stroke-linecap="round"/>
<path d="M178.974 57.1798H174.372" stroke="white" stroke-width="2" stroke-miterlimit="10" stroke-linecap="round"/>
<path d="M150.723 57.1798H149.189" stroke="white" stroke-width="2" stroke-miterlimit="10" stroke-linecap="round"/>
<path d="M157.114 57.1798H155.58" stroke="white" stroke-width="2" stroke-miterlimit="10" stroke-linecap="round"/>
<path d="M120.757 61.9597H93.6086C90.3767 61.9597 87.7912 59.3742 87.7912 56.1423V8.31002C87.7912 5.07811 90.3767 2.49258 93.6086 2.49258H120.757C123.989 2.49258 126.574 5.07811 126.574 8.31002V56.1423C126.574 59.3742 123.989 61.9597 120.757 61.9597Z" stroke="white" stroke-width="3" stroke-miterlimit="10"/>
<path d="M112.353 61.9598H102.011V79.1536H112.353V61.9598Z" stroke="white" stroke-width="3" stroke-miterlimit="10"/>
<path d="M107.183 30.9344C112.181 30.9344 116.233 26.8828 116.233 21.885C116.233 16.8872 112.181 12.8357 107.183 12.8357C102.185 12.8357 98.134 16.8872 98.134 21.885C98.134 26.8828 102.185 30.9344 107.183 30.9344Z" stroke="white" stroke-width="3" stroke-miterlimit="10"/>
<path d="M107.183 51.1015C110.253 51.1015 112.742 48.6125 112.742 45.5422C112.742 42.4719 110.253 39.9829 107.183 39.9829C104.113 39.9829 101.624 42.4719 101.624 45.5422C101.624 48.6125 104.113 51.1015 107.183 51.1015Z" stroke="white" stroke-width="3" stroke-miterlimit="10"/>
<path d="M87.6615 88.2029V84.3246C87.6615 81.4806 89.9885 79.1536 92.8326 79.1536H121.532C124.376 79.1536 126.703 81.4806 126.703 84.3246V88.2029C126.703 88.9786 126.186 89.4957 125.41 89.4957H88.9543C88.1786 89.4957 87.6615 88.9786 87.6615 88.2029Z" stroke="white" stroke-width="3" stroke-miterlimit="10"/>
<path d="M25.9519 27.1249C29.6686 27.1249 30.5263 25.4094 31.2411 23.2652H34.5289V53.7136H29.6686V30.5557H25.9519V27.1249Z" fill="white"/>
<path d="M39.818 30.6986C39.818 25.8383 42.3911 22.9793 47.1085 22.9793C51.8259 22.9793 54.399 25.6953 54.399 30.6986V46.5661C54.399 51.4264 51.8259 54.2854 47.1085 54.2854C42.3911 54.2854 39.818 51.5694 39.818 46.5661V30.6986ZM44.6783 46.852C44.6783 48.9962 45.679 49.8539 47.1085 49.8539C48.681 49.8539 49.5387 48.9962 49.5387 46.852V30.2697C49.5387 28.1255 48.538 27.2678 47.1085 27.2678C45.536 27.2678 44.6783 28.1255 44.6783 30.2697V46.852Z" fill="white"/>
<path d="M57.1152 30.6986C57.1152 25.8383 59.6883 22.9793 64.4056 22.9793C69.123 22.9793 71.6961 25.6953 71.6961 30.6986V46.5661C71.6961 51.4264 69.123 54.2854 64.4056 54.2854C59.6883 54.2854 57.1152 51.5694 57.1152 46.5661V30.6986ZM61.8325 46.852C61.8325 48.9962 62.8332 49.8539 64.2627 49.8539C65.8351 49.8539 66.6928 48.9962 66.6928 46.852V30.2697C66.6928 28.1255 65.6922 27.2678 64.2627 27.2678C62.6902 27.2678 61.8325 28.1255 61.8325 30.2697V46.852Z" fill="white"/>
<path d="M33.2425 65.7214L34.3861 58.1451H36.6733V68.7234H35.1009V61.0041L33.9573 68.7234H32.3848L31.0983 61.147V68.7234H29.6688V58.0021H31.956L33.2425 65.7214Z" fill="white"/>
<path d="M38.8175 68.7234V58.0021H43.5349V59.5746H40.5329V62.2906H41.5336C43.249 62.2906 44.1067 63.2913 44.1067 65.0067V66.1503C44.1067 67.8657 43.249 68.8663 41.5336 68.8663H38.8175V68.7234ZM41.5336 67.2939C42.1054 67.2939 42.3913 67.008 42.3913 66.2932V64.8637C42.3913 64.149 42.1054 63.8631 41.5336 63.8631H40.5329V67.2939H41.5336Z" fill="white"/>
<path d="M49.6819 58.145H51.1114L46.8229 68.8663H45.3934L49.6819 58.145Z" fill="white"/>
<path d="M57.544 64.8637V66.2932C57.544 68.0086 56.6863 69.0093 54.9709 69.0093C53.2555 69.0093 52.3978 68.0086 52.3978 66.2932V60.7182C52.3978 59.0028 53.2555 58.0021 54.9709 58.0021C56.6863 58.0021 57.544 59.0028 57.544 60.7182V61.7188H55.9716V60.5752C55.9716 59.8605 55.6857 59.5746 55.1139 59.5746C54.5421 59.5746 54.2562 59.8605 54.2562 60.5752V66.2932C54.2562 67.008 54.5421 67.2939 55.1139 67.2939C55.6857 67.2939 55.9716 67.008 55.9716 66.2932V64.7208H57.544V64.8637Z" fill="white"/>
<path d="M61.118 62.5765H63.4052V64.149H61.118V67.2939H63.977V68.7234H59.4026V58.0021H63.977V59.5746H61.118V62.5765Z" fill="white"/>
<path d="M68.1223 64.5778L67.5505 65.5785V68.7234H65.9781V58.0021H67.6935V62.7195L69.8377 58.0021H71.5531L69.2659 62.7195L71.5531 68.7234H69.8377L68.1223 64.5778Z" fill="white"/>
<path d="M92.9639 121H90.3184V110.339H85.1943V121H82.5576V108.203H92.9639V121ZM100.628 121C100.511 120.771 100.426 120.487 100.373 120.147C99.7578 120.833 98.958 121.176 97.9736 121.176C97.042 121.176 96.2686 120.906 95.6533 120.367C95.0439 119.828 94.7393 119.148 94.7393 118.328C94.7393 117.32 95.1113 116.547 95.8555 116.008C96.6055 115.469 97.6865 115.196 99.0986 115.19H100.268V114.646C100.268 114.206 100.153 113.854 99.9248 113.591C99.7021 113.327 99.3477 113.195 98.8613 113.195C98.4336 113.195 98.0967 113.298 97.8506 113.503C97.6104 113.708 97.4902 113.989 97.4902 114.347H94.9502C94.9502 113.796 95.1201 113.286 95.46 112.817C95.7998 112.349 96.2803 111.982 96.9014 111.719C97.5225 111.449 98.2197 111.314 98.9932 111.314C100.165 111.314 101.094 111.61 101.779 112.202C102.471 112.788 102.816 113.614 102.816 114.681V118.803C102.822 119.705 102.948 120.388 103.194 120.851V121H100.628ZM98.5273 119.233C98.9023 119.233 99.248 119.151 99.5645 118.987C99.8809 118.817 100.115 118.592 100.268 118.311V116.676H99.3184C98.0469 116.676 97.3701 117.115 97.2881 117.994L97.2793 118.144C97.2793 118.46 97.3906 118.721 97.6133 118.926C97.8359 119.131 98.1406 119.233 98.5273 119.233ZM108.494 117.493H107.475V121H104.935V111.49H107.475V115.067H108.38L110.454 111.49H113.662L110.551 116.017L113.952 121H110.568L108.494 117.493ZM119.146 121.176C117.752 121.176 116.615 120.748 115.736 119.893C114.863 119.037 114.427 117.897 114.427 116.474V116.228C114.427 115.272 114.611 114.42 114.98 113.67C115.35 112.914 115.871 112.334 116.545 111.93C117.225 111.52 117.998 111.314 118.865 111.314C120.166 111.314 121.188 111.725 121.933 112.545C122.683 113.365 123.058 114.528 123.058 116.034V117.071H117.002C117.084 117.692 117.33 118.19 117.74 118.565C118.156 118.94 118.681 119.128 119.313 119.128C120.292 119.128 121.057 118.773 121.607 118.064L122.855 119.462C122.475 120.001 121.959 120.423 121.309 120.728C120.658 121.026 119.938 121.176 119.146 121.176ZM118.856 113.371C118.353 113.371 117.942 113.541 117.626 113.881C117.315 114.221 117.116 114.707 117.028 115.34H120.562V115.138C120.55 114.575 120.397 114.142 120.104 113.837C119.812 113.526 119.396 113.371 118.856 113.371ZM132.295 113.529H129.245V121H126.696V113.529H123.699V111.49H132.295V113.529Z" fill="white"/>
<path d="M10.75 125.668L12.0781 126.439C11.5182 127.325 11.2285 128.223 11.209 129.135V130.766H8.97266V129.301C8.97266 128.689 9.14193 128.038 9.48047 127.348C9.82552 126.651 10.2487 126.091 10.75 125.668ZM14.0996 125.668L15.4277 126.439C14.8678 127.325 14.5781 128.223 14.5586 129.135V130.766H12.3223V129.301C12.3223 128.689 12.4915 128.038 12.8301 127.348C13.1751 126.651 13.5983 126.091 14.0996 125.668ZM17.2734 141V126.781H22.2539C23.9792 126.781 25.2878 127.113 26.1797 127.777C27.0716 128.435 27.5176 129.402 27.5176 130.678C27.5176 131.374 27.3385 131.99 26.9805 132.523C26.6224 133.051 26.1243 133.438 25.4863 133.686C26.2155 133.868 26.7884 134.236 27.2051 134.789C27.6283 135.342 27.8398 136.02 27.8398 136.82C27.8398 138.188 27.4036 139.223 26.5312 139.926C25.6589 140.629 24.4154 140.987 22.8008 141H17.2734ZM20.2031 134.809V138.646H22.7129C23.403 138.646 23.9401 138.484 24.3242 138.158C24.7148 137.826 24.9102 137.37 24.9102 136.791C24.9102 135.489 24.2363 134.828 22.8887 134.809H20.2031ZM20.2031 132.738H22.3711C23.849 132.712 24.5879 132.123 24.5879 130.971C24.5879 130.326 24.3991 129.864 24.0215 129.584C23.6504 129.298 23.0612 129.154 22.2539 129.154H20.2031V132.738ZM34.2559 138.92C34.7767 138.92 35.1999 138.777 35.5254 138.49C35.8509 138.204 36.0202 137.823 36.0332 137.348H38.6797C38.6732 138.064 38.4779 138.721 38.0938 139.32C37.7096 139.913 37.1823 140.375 36.5117 140.707C35.8477 141.033 35.112 141.195 34.3047 141.195C32.7943 141.195 31.6029 140.717 30.7305 139.76C29.8581 138.796 29.4219 137.468 29.4219 135.775V135.59C29.4219 133.962 29.8548 132.663 30.7207 131.693C31.5866 130.723 32.7747 130.238 34.2852 130.238C35.6068 130.238 36.6647 130.616 37.459 131.371C38.2598 132.12 38.6667 133.119 38.6797 134.369H36.0332C36.0202 133.822 35.8509 133.38 35.5254 133.041C35.1999 132.696 34.7702 132.523 34.2363 132.523C33.5788 132.523 33.0807 132.764 32.7422 133.246C32.4102 133.721 32.2441 134.496 32.2441 135.57V135.863C32.2441 136.951 32.4102 137.732 32.7422 138.207C33.0742 138.682 33.5788 138.92 34.2559 138.92ZM45.1543 141.195C43.6048 141.195 42.3418 140.72 41.3652 139.77C40.3952 138.819 39.9102 137.553 39.9102 135.971V135.697C39.9102 134.636 40.1152 133.689 40.5254 132.855C40.9355 132.016 41.515 131.371 42.2637 130.922C43.0189 130.466 43.8783 130.238 44.8418 130.238C46.2871 130.238 47.4232 130.694 48.25 131.605C49.0833 132.517 49.5 133.809 49.5 135.482V136.635H42.7715C42.8626 137.325 43.1361 137.878 43.5918 138.295C44.054 138.712 44.6367 138.92 45.3398 138.92C46.4271 138.92 47.2767 138.526 47.8887 137.738L49.2754 139.291C48.8522 139.89 48.2793 140.359 47.5566 140.697C46.834 141.029 46.0332 141.195 45.1543 141.195ZM44.832 132.523C44.2721 132.523 43.8164 132.712 43.4648 133.09C43.1198 133.467 42.8984 134.008 42.8008 134.711H46.7266V134.486C46.7135 133.861 46.5443 133.38 46.2188 133.041C45.8932 132.696 45.431 132.523 44.832 132.523ZM65.2812 141H62.4492V132.719H58.9141V141H56.0918V130.434H65.2812V141ZM67 135.619C67 134.571 67.2018 133.637 67.6055 132.816C68.0091 131.996 68.5885 131.361 69.3438 130.912C70.1055 130.463 70.9876 130.238 71.9902 130.238C73.416 130.238 74.5781 130.674 75.4766 131.547C76.3815 132.419 76.8861 133.604 76.9902 135.102L77.0098 135.824C77.0098 137.445 76.5573 138.747 75.6523 139.73C74.7474 140.707 73.5332 141.195 72.0098 141.195C70.4863 141.195 69.2689 140.707 68.3574 139.73C67.4525 138.754 67 137.426 67 135.746V135.619ZM69.8223 135.824C69.8223 136.827 70.0111 137.595 70.3887 138.129C70.7663 138.656 71.3066 138.92 72.0098 138.92C72.6934 138.92 73.2272 138.66 73.6113 138.139C73.9954 137.611 74.1875 136.771 74.1875 135.619C74.1875 134.636 73.9954 133.874 73.6113 133.334C73.2272 132.794 72.6868 132.523 71.9902 132.523C71.3001 132.523 70.7663 132.794 70.3887 133.334C70.0111 133.868 69.8223 134.698 69.8223 135.824ZM78.1914 138.725C78.8294 138.048 79.2624 137.377 79.4902 136.713C79.7181 136.049 79.8451 135.108 79.8711 133.891L79.9492 130.434H87.7227V138.725H89.2461V144.174H86.4238V141H80.1641V144.174H77.2832V138.725H78.1914ZM81.5215 138.725H84.9102V132.768H82.7129L82.6934 134.037C82.6348 135.977 82.2441 137.54 81.5215 138.725ZM99.8027 137.104H98.6699V141H95.8477V130.434H98.6699V134.408H99.6758L101.98 130.434H105.545L102.088 135.463L105.867 141H102.107L99.8027 137.104ZM105.926 135.619C105.926 134.571 106.128 133.637 106.531 132.816C106.935 131.996 107.514 131.361 108.27 130.912C109.031 130.463 109.913 130.238 110.916 130.238C112.342 130.238 113.504 130.674 114.402 131.547C115.307 132.419 115.812 133.604 115.916 135.102L115.936 135.824C115.936 137.445 115.483 138.747 114.578 139.73C113.673 140.707 112.459 141.195 110.936 141.195C109.412 141.195 108.195 140.707 107.283 139.73C106.378 138.754 105.926 137.426 105.926 135.746V135.619ZM108.748 135.824C108.748 136.827 108.937 137.595 109.314 138.129C109.692 138.656 110.232 138.92 110.936 138.92C111.619 138.92 112.153 138.66 112.537 138.139C112.921 137.611 113.113 136.771 113.113 135.619C113.113 134.636 112.921 133.874 112.537 133.334C112.153 132.794 111.613 132.523 110.916 132.523C110.226 132.523 109.692 132.794 109.314 133.334C108.937 133.868 108.748 134.698 108.748 135.824ZM126.834 141H124.002V136.938H120.496V141H117.674V130.434H120.496V134.672H124.002V130.434H126.834V141ZM137.791 132.699H134.402V141H131.57V132.699H128.24V130.434H137.791V132.699ZM148.729 135.814C148.729 137.442 148.357 138.747 147.615 139.73C146.88 140.707 145.883 141.195 144.627 141.195C143.559 141.195 142.697 140.824 142.039 140.082V145.062H139.217V130.434H141.834L141.932 131.469C142.615 130.648 143.507 130.238 144.607 130.238C145.91 130.238 146.922 130.72 147.645 131.684C148.367 132.647 148.729 133.975 148.729 135.668V135.814ZM145.906 135.609C145.906 134.626 145.73 133.868 145.379 133.334C145.034 132.8 144.529 132.533 143.865 132.533C142.98 132.533 142.371 132.872 142.039 133.549V137.875C142.384 138.572 142.999 138.92 143.885 138.92C145.232 138.92 145.906 137.816 145.906 135.609ZM150.047 135.619C150.047 134.571 150.249 133.637 150.652 132.816C151.056 131.996 151.635 131.361 152.391 130.912C153.152 130.463 154.035 130.238 155.037 130.238C156.463 130.238 157.625 130.674 158.523 131.547C159.428 132.419 159.933 133.604 160.037 135.102L160.057 135.824C160.057 137.445 159.604 138.747 158.699 139.73C157.794 140.707 156.58 141.195 155.057 141.195C153.533 141.195 152.316 140.707 151.404 139.73C150.499 138.754 150.047 137.426 150.047 135.746V135.619ZM152.869 135.824C152.869 136.827 153.058 137.595 153.436 138.129C153.813 138.656 154.354 138.92 155.057 138.92C155.74 138.92 156.274 138.66 156.658 138.139C157.042 137.611 157.234 136.771 157.234 135.619C157.234 134.636 157.042 133.874 156.658 133.334C156.274 132.794 155.734 132.523 155.037 132.523C154.347 132.523 153.813 132.794 153.436 133.334C153.058 133.868 152.869 134.698 152.869 135.824ZM170.828 130.434V141H168.006V132.719H165.516L165.34 135.98C165.229 137.719 164.887 138.985 164.314 139.779C163.742 140.574 162.889 140.98 161.756 141H160.799L160.77 138.705L161.121 138.676C161.629 138.637 162 138.337 162.234 137.777C162.469 137.217 162.615 136.264 162.674 134.916L162.869 130.434H170.828ZM177.869 141.195C176.32 141.195 175.057 140.72 174.08 139.77C173.11 138.819 172.625 137.553 172.625 135.971V135.697C172.625 134.636 172.83 133.689 173.24 132.855C173.65 132.016 174.23 131.371 174.979 130.922C175.734 130.466 176.593 130.238 177.557 130.238C179.002 130.238 180.138 130.694 180.965 131.605C181.798 132.517 182.215 133.809 182.215 135.482V136.635H175.486C175.577 137.325 175.851 137.878 176.307 138.295C176.769 138.712 177.352 138.92 178.055 138.92C179.142 138.92 179.992 138.526 180.604 137.738L181.99 139.291C181.567 139.89 180.994 140.359 180.271 140.697C179.549 141.029 178.748 141.195 177.869 141.195ZM177.547 132.523C176.987 132.523 176.531 132.712 176.18 133.09C175.835 133.467 175.613 134.008 175.516 134.711H179.441V134.486C179.428 133.861 179.259 133.38 178.934 133.041C178.608 132.696 178.146 132.523 177.547 132.523ZM190.262 137.67L193.025 130.434H196.561V141H193.738V134.516L191.209 141H189.314L186.834 134.623V141H184.012V130.434H187.518L190.262 137.67ZM199.969 131.146L198.641 130.375C199.201 129.496 199.49 128.588 199.51 127.65V126H201.756V127.514C201.756 128.1 201.593 128.734 201.268 129.418C200.942 130.102 200.509 130.678 199.969 131.146ZM203.357 131.146L202.029 130.375C202.589 129.496 202.879 128.588 202.898 127.65V126H205.145V127.514C205.145 128.1 204.982 128.734 204.656 129.418C204.331 130.102 203.898 130.678 203.357 131.146Z" fill="white"/>
</svg>
