<svg width="213" height="176" viewBox="0 0 213 176" fill="none" xmlns="http://www.w3.org/2000/svg">
<path d="M91.9639 152H89.3184V141.339H84.1943V152H81.5576V139.203H91.9639V152ZM99.6279 152C99.5107 151.771 99.4258 151.487 99.373 151.147C98.7578 151.833 97.958 152.176 96.9736 152.176C96.042 152.176 95.2686 151.906 94.6533 151.367C94.0439 150.828 93.7393 150.148 93.7393 149.328C93.7393 148.32 94.1113 147.547 94.8555 147.008C95.6055 146.469 96.6865 146.196 98.0986 146.19H99.2676V145.646C99.2676 145.206 99.1533 144.854 98.9248 144.591C98.7021 144.327 98.3477 144.195 97.8613 144.195C97.4336 144.195 97.0967 144.298 96.8506 144.503C96.6104 144.708 96.4902 144.989 96.4902 145.347H93.9502C93.9502 144.796 94.1201 144.286 94.46 143.817C94.7998 143.349 95.2803 142.982 95.9014 142.719C96.5225 142.449 97.2197 142.314 97.9932 142.314C99.165 142.314 100.094 142.61 100.779 143.202C101.471 143.788 101.816 144.614 101.816 145.681V149.803C101.822 150.705 101.948 151.388 102.194 151.851V152H99.6279ZM97.5273 150.233C97.9023 150.233 98.248 150.151 98.5645 149.987C98.8809 149.817 99.1152 149.592 99.2676 149.311V147.676H98.3184C97.0469 147.676 96.3701 148.115 96.2881 148.994L96.2793 149.144C96.2793 149.46 96.3906 149.721 96.6133 149.926C96.8359 150.131 97.1406 150.233 97.5273 150.233ZM107.494 148.493H106.475V152H103.935V142.49H106.475V146.067H107.38L109.454 142.49H112.662L109.551 147.017L112.952 152H109.568L107.494 148.493ZM118.146 152.176C116.752 152.176 115.615 151.748 114.736 150.893C113.863 150.037 113.427 148.897 113.427 147.474V147.228C113.427 146.272 113.611 145.42 113.98 144.67C114.35 143.914 114.871 143.334 115.545 142.93C116.225 142.52 116.998 142.314 117.865 142.314C119.166 142.314 120.188 142.725 120.933 143.545C121.683 144.365 122.058 145.528 122.058 147.034V148.071H116.002C116.084 148.692 116.33 149.19 116.74 149.565C117.156 149.94 117.681 150.128 118.313 150.128C119.292 150.128 120.057 149.773 120.607 149.064L121.855 150.462C121.475 151.001 120.959 151.423 120.309 151.728C119.658 152.026 118.938 152.176 118.146 152.176ZM117.856 144.371C117.353 144.371 116.942 144.541 116.626 144.881C116.315 145.221 116.116 145.707 116.028 146.34H119.562V146.138C119.55 145.575 119.397 145.142 119.104 144.837C118.812 144.526 118.396 144.371 117.856 144.371ZM131.295 144.529H128.245V152H125.696V144.529H122.699V142.49H131.295V144.529Z" fill="white"/>
<path d="M107.166 27.2079H86.8807C86.2221 27.2079 85.5635 26.681 85.5635 25.8907V3.89251C85.5635 3.10216 86.0904 2.57526 86.8807 2.57526H92.1497" stroke="white" stroke-width="2" stroke-miterlimit="10" stroke-linecap="round" stroke-linejoin="round"/>
<path d="M121.656 2.57526H124.818C125.608 2.57526 126.135 3.10216 126.135 3.89251V25.8907C126.135 26.681 125.608 27.2079 124.818 27.2079H123.896" stroke="white" stroke-width="2" stroke-miterlimit="10" stroke-linecap="round" stroke-linejoin="round"/>
<path d="M110.46 33.2673H101.239V27.0762H109.142C109.933 27.0762 110.46 27.6031 110.46 28.3935V33.2673Z" stroke="white" stroke-width="2" stroke-miterlimit="10"/>
<path d="M117.441 33.2673H94.2573" stroke="white" stroke-width="2" stroke-miterlimit="10" stroke-linecap="round"/>
<path d="M92.4133 26.0224C92.4133 26.0224 88.8567 20.8851 89.2518 14.8257C89.647 8.76637 93.7305 2.97046 104.927 1.38975C116.124 -0.190955 121.525 6.39532 122.447 14.4306C123.369 22.4658 120.602 26.1541 117.178 26.9445C113.753 27.7348 110.723 23.3879 113.621 20.0948" stroke="white" stroke-width="2" stroke-miterlimit="10" stroke-linecap="round"/>
<path d="M98.604 26.1541C98.604 26.1541 99.6578 23.2562 102.556 23.2562C105.454 23.2562 106.112 26.1541 106.112 26.1541" stroke="white" stroke-width="2" stroke-miterlimit="10" stroke-linecap="round"/>
<path d="M110.196 6.13187C109.142 5.47324 107.957 5.07806 106.639 5.07806C102.951 5.07806 99.9214 8.10775 99.9214 11.7961C99.9214 13.7719 100.712 15.6161 102.161 16.8016" stroke="white" stroke-width="2" stroke-miterlimit="10" stroke-linecap="round"/>
<path d="M112.567 13.3768C111.777 14.1671 111.777 15.4844 112.567 16.2747" stroke="white" stroke-width="2" stroke-miterlimit="10" stroke-linecap="round"/>
<path d="M115.643 9.12152L115.764 9.22156" stroke="white" stroke-width="2" stroke-linecap="round" stroke-linejoin="round"/>
<path d="M117.508 96.8472H94.1918C91.4161 96.8472 89.1955 94.6266 89.1955 91.8508V50.7696C89.1955 47.9938 91.4161 45.7732 94.1918 45.7732H117.508C120.284 45.7732 122.505 47.9938 122.505 50.7696V91.8508C122.505 94.6266 120.284 96.8472 117.508 96.8472Z" stroke="white" stroke-width="3" stroke-miterlimit="10"/>
<path d="M110.29 96.8471H101.408V111.614H110.29V96.8471Z" stroke="white" stroke-width="3" stroke-miterlimit="10"/>
<path d="M105.85 70.2005C110.142 70.2005 113.622 66.7208 113.622 62.4284C113.622 58.136 110.142 54.6563 105.85 54.6563C101.557 54.6563 98.0777 58.136 98.0777 62.4284C98.0777 66.7208 101.557 70.2005 105.85 70.2005Z" stroke="white" stroke-width="3" stroke-miterlimit="10"/>
<path d="M105.85 87.5213C108.487 87.5213 110.624 85.3836 110.624 82.7466C110.624 80.1097 108.487 77.972 105.85 77.972C103.213 77.972 101.075 80.1097 101.075 82.7466C101.075 85.3836 103.213 87.5213 105.85 87.5213Z" stroke="white" stroke-width="3" stroke-miterlimit="10"/>
<path d="M89.0834 119.386V116.055C89.0834 113.613 91.0819 111.614 93.5246 111.614H118.173C120.616 111.614 122.615 113.613 122.615 116.055V119.386C122.615 120.052 122.17 120.497 121.504 120.497H90.1937C89.5275 120.497 89.0834 120.052 89.0834 119.386Z" stroke="white" stroke-width="3" stroke-miterlimit="10"/>
<path d="M184.661 93.5488H143.754C142.987 93.5488 142.476 93.0374 142.476 92.2704V86.1344C142.476 83.9612 144.137 82.2993 146.311 82.2993H182.104C184.277 82.2993 185.939 83.9612 185.939 86.1344V92.2704C185.939 93.0374 185.428 93.5488 184.661 93.5488Z" stroke="white" stroke-width="2" stroke-miterlimit="10"/>
<path d="M149.251 82.0437L145.032 64.6582" stroke="white" stroke-width="2" stroke-miterlimit="10" stroke-linecap="round"/>
<path d="M178.908 82.0437L183.255 64.6582" stroke="white" stroke-width="2" stroke-miterlimit="10" stroke-linecap="round"/>
<path d="M164.208 77.3138C165.549 77.3138 166.636 76.2264 166.636 74.885C166.636 73.5436 165.549 72.4561 164.208 72.4561C162.866 72.4561 161.779 73.5436 161.779 74.885C161.779 76.2264 162.866 77.3138 164.208 77.3138Z" stroke="white" stroke-width="2" stroke-miterlimit="10"/>
<path d="M170.855 70.7942C169.193 69.1324 166.764 68.1097 164.207 68.1097C161.651 68.1097 159.222 69.1324 157.56 70.7942" stroke="white" stroke-width="2" stroke-miterlimit="10" stroke-linecap="round"/>
<path d="M173.539 68.1097C171.11 65.6809 167.787 64.2747 164.207 64.2747C160.5 64.2747 157.176 65.6809 154.875 68.1097" stroke="white" stroke-width="2" stroke-miterlimit="10" stroke-linecap="round"/>
<path d="M176.352 65.4252C173.156 62.3572 168.937 60.4397 164.207 60.4397C159.478 60.4397 155.259 62.3572 152.063 65.4252" stroke="white" stroke-width="2" stroke-miterlimit="10" stroke-linecap="round"/>
<path d="M178.781 88.1798H174.179" stroke="white" stroke-width="2" stroke-miterlimit="10" stroke-linecap="round"/>
<path d="M150.529 88.1798H148.995" stroke="white" stroke-width="2" stroke-miterlimit="10" stroke-linecap="round"/>
<path d="M156.921 88.1798H155.387" stroke="white" stroke-width="2" stroke-miterlimit="10" stroke-linecap="round"/>
<path d="M25.7585 58.1249C29.4753 58.1249 30.333 56.4094 31.0477 54.2652H34.3356V84.7136H29.4753V61.5557H25.7585V58.1249Z" fill="white"/>
<path d="M39.6247 61.6986C39.6247 56.8383 42.1978 53.9793 46.9151 53.9793C51.6325 53.9793 54.2056 56.6953 54.2056 61.6986V77.5661C54.2056 82.4264 51.6325 85.2854 46.9151 85.2854C42.1978 85.2854 39.6247 82.5694 39.6247 77.5661V61.6986ZM44.485 77.852C44.485 79.9962 45.4856 80.8539 46.9151 80.8539C48.4876 80.8539 49.3453 79.9962 49.3453 77.852V61.2697C49.3453 59.1255 48.3446 58.2678 46.9151 58.2678C45.3427 58.2678 44.485 59.1255 44.485 61.2697V77.852Z" fill="white"/>
<path d="M56.9218 61.6986C56.9218 56.8383 59.4949 53.9793 64.2123 53.9793C68.9296 53.9793 71.5028 56.6953 71.5028 61.6986V77.5661C71.5028 82.4264 68.9296 85.2854 64.2123 85.2854C59.4949 85.2854 56.9218 82.5694 56.9218 77.5661V61.6986ZM61.6392 77.852C61.6392 79.9962 62.6398 80.8539 64.0693 80.8539C65.6418 80.8539 66.4995 79.9962 66.4995 77.852V61.2697C66.4995 59.1255 65.4988 58.2678 64.0693 58.2678C62.4969 58.2678 61.6392 59.1255 61.6392 61.2697V77.852Z" fill="white"/>
<path d="M33.0492 96.7214L34.1928 89.1451H36.48V99.7234H34.9075V92.0041L33.7639 99.7234H32.1915L30.9049 92.147V99.7234H29.4754V89.0021H31.7626L33.0492 96.7214Z" fill="white"/>
<path d="M38.6241 99.7234V89.0021H43.3415V90.5746H40.3396V93.2906H41.3402C43.0556 93.2906 43.9133 94.2913 43.9133 96.0067V97.1503C43.9133 98.8657 43.0556 99.8663 41.3402 99.8663H38.6241V99.7234ZM41.3402 98.2939C41.912 98.2939 42.1979 98.008 42.1979 97.2932V95.8637C42.1979 95.149 41.912 94.8631 41.3402 94.8631H40.3396V98.2939H41.3402Z" fill="white"/>
<path d="M49.4885 89.145H50.918L46.6295 99.8663H45.2L49.4885 89.145Z" fill="white"/>
<path d="M57.3507 95.8637V97.2932C57.3507 99.0086 56.4929 100.009 54.7775 100.009C53.0621 100.009 52.2044 99.0086 52.2044 97.2932V91.7182C52.2044 90.0028 53.0621 89.0021 54.7775 89.0021C56.4929 89.0021 57.3507 90.0028 57.3507 91.7182V92.7188H55.7782V91.5752C55.7782 90.8605 55.4923 90.5746 54.9205 90.5746C54.3487 90.5746 54.0628 90.8605 54.0628 91.5752V97.2932C54.0628 98.008 54.3487 98.2939 54.9205 98.2939C55.4923 98.2939 55.7782 98.008 55.7782 97.2932V95.7208H57.3507V95.8637Z" fill="white"/>
<path d="M60.9246 93.5765H63.2118V95.149H60.9246V98.2939H63.7836V99.7234H59.2092V89.0021H63.7836V90.5746H60.9246V93.5765Z" fill="white"/>
<path d="M67.929 95.5778L67.3572 96.5785V99.7234H65.7847V89.0021H67.5001V93.7195L69.6444 89.0021H71.3598L69.0726 93.7195L71.3598 99.7234H69.6444L67.929 95.5778Z" fill="white"/>
<path d="M25.8477 156.668L27.1758 157.439C26.6159 158.325 26.3262 159.223 26.3066 160.135V161.766H24.0703V160.301C24.0703 159.689 24.2396 159.038 24.5781 158.348C24.9232 157.651 25.3464 157.091 25.8477 156.668ZM29.1973 156.668L30.5254 157.439C29.9655 158.325 29.6758 159.223 29.6562 160.135V161.766H27.4199V160.301C27.4199 159.689 27.5892 159.038 27.9277 158.348C28.2728 157.651 28.696 157.091 29.1973 156.668ZM43.0742 160.154H38.7188V172H35.7891V160.154H31.4922V157.781H43.0742V160.154ZM46.2969 164.529H48.3184C49.2298 164.529 50.0306 164.682 50.7207 164.988C51.4108 165.294 51.9382 165.734 52.3027 166.307C52.6738 166.873 52.8594 167.534 52.8594 168.289C52.8594 169.402 52.446 170.301 51.6191 170.984C50.7988 171.661 49.679 172 48.2598 172H43.4648V161.434H46.2969V164.529ZM57.3516 172H54.5293V161.434H57.3516V172ZM46.2969 166.795V169.744H48.2988C48.8587 169.744 49.2884 169.614 49.5879 169.354C49.8874 169.093 50.0371 168.738 50.0371 168.289C50.0371 167.833 49.8906 167.472 49.5977 167.205C49.3047 166.932 48.8717 166.795 48.2988 166.795H46.2969ZM64.2363 169.92C64.7572 169.92 65.1803 169.777 65.5059 169.49C65.8314 169.204 66.0007 168.823 66.0137 168.348H68.6602C68.6536 169.064 68.4583 169.721 68.0742 170.32C67.6901 170.913 67.1628 171.375 66.4922 171.707C65.8281 172.033 65.0924 172.195 64.2852 172.195C62.7747 172.195 61.5833 171.717 60.7109 170.76C59.8385 169.796 59.4023 168.468 59.4023 166.775V166.59C59.4023 164.962 59.8353 163.663 60.7012 162.693C61.5671 161.723 62.7552 161.238 64.2656 161.238C65.5872 161.238 66.6452 161.616 67.4395 162.371C68.2402 163.12 68.6471 164.119 68.6602 165.369H66.0137C66.0007 164.822 65.8314 164.38 65.5059 164.041C65.1803 163.696 64.7507 163.523 64.2168 163.523C63.5592 163.523 63.0612 163.764 62.7227 164.246C62.3906 164.721 62.2246 165.496 62.2246 166.57V166.863C62.2246 167.951 62.3906 168.732 62.7227 169.207C63.0547 169.682 63.5592 169.92 64.2363 169.92ZM79.0801 161.434V172H76.2676V168.348H74.4805L72.4492 172H69.5879L71.8926 167.869C71.2611 167.576 70.7728 167.179 70.4277 166.678C70.0892 166.176 69.9199 165.607 69.9199 164.969C69.9199 163.947 70.3138 163.11 71.1016 162.459C71.8958 161.801 72.957 161.46 74.2852 161.434H79.0801ZM74.334 166.375H76.2676V163.699H74.4316C73.9303 163.699 73.5234 163.833 73.2109 164.1C72.8984 164.36 72.7422 164.679 72.7422 165.057C72.7422 165.434 72.8919 165.747 73.1914 165.994C73.4909 166.242 73.8717 166.368 74.334 166.375ZM90.3691 172H87.5469V168.68C87.0195 168.777 86.528 168.826 86.0723 168.826C84.4772 168.826 83.276 168.488 82.4688 167.811C81.6615 167.133 81.2513 166.144 81.2383 164.842V161.434H84.0605V164.842C84.0671 165.454 84.2168 165.893 84.5098 166.16C84.8027 166.421 85.3236 166.551 86.0723 166.551C86.541 166.551 87.0326 166.495 87.5469 166.385V161.434H90.3691V172ZM98.6602 172C98.5299 171.746 98.4355 171.43 98.377 171.053C97.6934 171.814 96.8047 172.195 95.7109 172.195C94.6758 172.195 93.8164 171.896 93.1328 171.297C92.4557 170.698 92.1172 169.943 92.1172 169.031C92.1172 167.911 92.5306 167.052 93.3574 166.453C94.1908 165.854 95.3919 165.551 96.9609 165.545H98.2598V164.939C98.2598 164.451 98.1328 164.061 97.8789 163.768C97.6315 163.475 97.2376 163.328 96.6973 163.328C96.222 163.328 95.8477 163.442 95.5742 163.67C95.3073 163.898 95.1738 164.21 95.1738 164.607H92.3516C92.3516 163.995 92.5404 163.429 92.918 162.908C93.2956 162.387 93.8294 161.98 94.5195 161.688C95.2096 161.388 95.9844 161.238 96.8438 161.238C98.1458 161.238 99.1777 161.567 99.9395 162.225C100.708 162.876 101.092 163.794 101.092 164.979V169.559C101.098 170.561 101.238 171.32 101.512 171.834V172H98.6602ZM96.3262 170.037C96.7428 170.037 97.127 169.946 97.4785 169.764C97.8301 169.575 98.0905 169.324 98.2598 169.012V167.195H97.2051C95.7923 167.195 95.0404 167.684 94.9492 168.66L94.9395 168.826C94.9395 169.178 95.0632 169.467 95.3105 169.695C95.5579 169.923 95.8965 170.037 96.3262 170.037ZM117.43 172H114.598V163.719H111.062V172H108.24V161.434H117.43V172ZM128.396 161.434V172H125.584V168.348H123.797L121.766 172H118.904L121.209 167.869C120.577 167.576 120.089 167.179 119.744 166.678C119.406 166.176 119.236 165.607 119.236 164.969C119.236 163.947 119.63 163.11 120.418 162.459C121.212 161.801 122.273 161.46 123.602 161.434H128.396ZM123.65 166.375H125.584V163.699H123.748C123.247 163.699 122.84 163.833 122.527 164.1C122.215 164.36 122.059 164.679 122.059 165.057C122.059 165.434 122.208 165.747 122.508 165.994C122.807 166.242 123.188 166.368 123.65 166.375ZM139.549 163.699H136.16V172H133.328V163.699H129.998V161.434H139.549V163.699ZM143.992 164.529H146.014C146.925 164.529 147.726 164.682 148.416 164.988C149.106 165.294 149.633 165.734 149.998 166.307C150.369 166.873 150.555 167.534 150.555 168.289C150.555 169.402 150.141 170.301 149.314 170.984C148.494 171.661 147.374 172 145.955 172H141.16V161.434H143.992V164.529ZM143.992 166.795V169.744H145.994C146.554 169.744 146.984 169.614 147.283 169.354C147.583 169.093 147.732 168.738 147.732 168.289C147.732 167.833 147.586 167.472 147.293 167.205C147 166.932 146.567 166.795 145.994 166.795H143.992ZM156.541 169.92C157.062 169.92 157.485 169.777 157.811 169.49C158.136 169.204 158.305 168.823 158.318 168.348H160.965C160.958 169.064 160.763 169.721 160.379 170.32C159.995 170.913 159.467 171.375 158.797 171.707C158.133 172.033 157.397 172.195 156.59 172.195C155.079 172.195 153.888 171.717 153.016 170.76C152.143 169.796 151.707 168.468 151.707 166.775V166.59C151.707 164.962 152.14 163.663 153.006 162.693C153.872 161.723 155.06 161.238 156.57 161.238C157.892 161.238 158.95 161.616 159.744 162.371C160.545 163.12 160.952 164.119 160.965 165.369H158.318C158.305 164.822 158.136 164.38 157.811 164.041C157.485 163.696 157.055 163.523 156.521 163.523C155.864 163.523 155.366 163.764 155.027 164.246C154.695 164.721 154.529 165.496 154.529 166.57V166.863C154.529 167.951 154.695 168.732 155.027 169.207C155.359 169.682 155.864 169.92 156.541 169.92ZM162.137 166.619C162.137 165.571 162.339 164.637 162.742 163.816C163.146 162.996 163.725 162.361 164.48 161.912C165.242 161.463 166.124 161.238 167.127 161.238C168.553 161.238 169.715 161.674 170.613 162.547C171.518 163.419 172.023 164.604 172.127 166.102L172.146 166.824C172.146 168.445 171.694 169.747 170.789 170.73C169.884 171.707 168.67 172.195 167.146 172.195C165.623 172.195 164.406 171.707 163.494 170.73C162.589 169.754 162.137 168.426 162.137 166.746V166.619ZM164.959 166.824C164.959 167.827 165.148 168.595 165.525 169.129C165.903 169.656 166.443 169.92 167.146 169.92C167.83 169.92 168.364 169.66 168.748 169.139C169.132 168.611 169.324 167.771 169.324 166.619C169.324 165.636 169.132 164.874 168.748 164.334C168.364 163.794 167.824 163.523 167.127 163.523C166.437 163.523 165.903 163.794 165.525 164.334C165.148 164.868 164.959 165.698 164.959 166.824ZM182.361 163.699H178.973V172H176.141V163.699H172.811V161.434H182.361V163.699ZM184.871 162.146L183.543 161.375C184.103 160.496 184.393 159.588 184.412 158.65V157H186.658V158.514C186.658 159.1 186.495 159.734 186.17 160.418C185.844 161.102 185.411 161.678 184.871 162.146ZM188.26 162.146L186.932 161.375C187.492 160.496 187.781 159.588 187.801 158.65V157H190.047V158.514C190.047 159.1 189.884 159.734 189.559 160.418C189.233 161.102 188.8 161.678 188.26 162.146Z" fill="white"/>
</svg>
