<svg width="31" height="30" viewBox="0 0 31 30" fill="none" xmlns="http://www.w3.org/2000/svg">
<path fill-rule="evenodd" clip-rule="evenodd" d="M30.4839 12.1975C30.2392 11.3585 29.4881 10.7322 28.56 10.7322C28.3558 10.7322 28.1702 10.7916 27.9843 10.8471C27.9628 10.836 25.6025 11.5345 24.3296 11.5345C19.2771 11.5345 15.1819 7.48859 15.1819 2.49765C15.1819 2.40216 15.1893 2.20104 15.1806 2.19311C15.1806 2.19089 15.1819 2.18898 15.1819 2.18613C15.1819 1.07583 14.2703 0.175537 13.146 0.175537C13.0076 0.175537 12.8866 0.227561 12.7552 0.253574C12.7292 0.246912 12.7735 0.249767 12.7552 0.253574C6.04835 1.69855 0.929718 7.55838 0.929718 14.6177C0.929718 22.7606 7.61155 29.3615 15.8543 29.3615C24.0971 29.3615 30.779 22.7606 30.779 14.6177C30.779 13.8284 30.6046 12.9528 30.4835 12.1975C30.48 12.175 30.5185 12.2302 30.4835 12.1975H30.4839Z" fill="#2E3134"/>
</svg>
